<mxfile host="app.diagrams.net" agent="Mozilla/5.0 (Windows NT 10.0; Win64; x64; rv:134.0) Gecko/20100101 Firefox/134.0" version="26.0.5">
  <diagram name="Page-1" id="H4sONhvKyHtje3pTV-qF">
    <mxGraphModel dx="2910" dy="2191" grid="1" gridSize="10" guides="1" tooltips="1" connect="1" arrows="1" fold="1" page="1" pageScale="1" pageWidth="850" pageHeight="1100" math="0" shadow="0">
      <root>
        <mxCell id="0" />
        <mxCell id="1" parent="0" />
        <mxCell id="J6gOtMhQ5AHENFdBQ14g-9" value="" style="rounded=0;whiteSpace=wrap;html=1;" parent="1" vertex="1">
          <mxGeometry x="-850" y="-30" width="1370" height="680" as="geometry" />
        </mxCell>
        <mxCell id="a46WFlWve7ooyqTm3PGp-4" value="&lt;font style=&quot;font-size: 18px; color: rgb(255, 255, 255);&quot;&gt;Gate Management&lt;/font&gt;" style="text;strokeColor=none;align=center;fillColor=none;html=1;verticalAlign=middle;whiteSpace=wrap;rounded=0;" parent="1" vertex="1">
          <mxGeometry x="150" y="357.5" width="160" height="30" as="geometry" />
        </mxCell>
        <mxCell id="a46WFlWve7ooyqTm3PGp-22" value="&lt;b&gt;Equipment Status&lt;br&gt;&lt;/b&gt;" style="text;strokeColor=none;align=center;fillColor=none;html=1;verticalAlign=middle;whiteSpace=wrap;rounded=0;" parent="1" vertex="1">
          <mxGeometry x="-388.22" y="432.5" width="175" height="30" as="geometry" />
        </mxCell>
        <mxCell id="a46WFlWve7ooyqTm3PGp-23" value="&lt;div&gt;&lt;b&gt;Gate A1&lt;/b&gt;&lt;/div&gt;&lt;div&gt;&lt;b&gt;AA123&lt;br&gt;&lt;/b&gt;&lt;/div&gt;" style="rounded=0;whiteSpace=wrap;html=1;strokeWidth=0;" parent="1" vertex="1">
          <mxGeometry x="-815" y="250" width="120" height="30" as="geometry" />
        </mxCell>
        <mxCell id="a46WFlWve7ooyqTm3PGp-24" value="&lt;span style=&quot;color: rgb(50, 163, 69);&quot;&gt;Available&lt;/span&gt;" style="rounded=0;whiteSpace=wrap;html=1;strokeWidth=0;" parent="1" vertex="1">
          <mxGeometry x="-677.5" y="250" width="120" height="30" as="geometry" />
        </mxCell>
        <mxCell id="a46WFlWve7ooyqTm3PGp-28" value="Status Update" style="text;html=1;align=center;verticalAlign=middle;whiteSpace=wrap;rounded=0;" parent="1" vertex="1">
          <mxGeometry x="-675" y="222.5" width="95" height="30" as="geometry" />
        </mxCell>
        <mxCell id="a46WFlWve7ooyqTm3PGp-29" value="Current Gate" style="text;html=1;align=center;verticalAlign=middle;whiteSpace=wrap;rounded=0;" parent="1" vertex="1">
          <mxGeometry x="-820" y="220" width="95" height="30" as="geometry" />
        </mxCell>
        <mxCell id="a46WFlWve7ooyqTm3PGp-30" value="&lt;b&gt;&lt;font style=&quot;font-size: 16px;&quot;&gt;Gate A1 Details&lt;/font&gt;&lt;/b&gt;" style="text;html=1;align=left;verticalAlign=middle;whiteSpace=wrap;rounded=0;" parent="1" vertex="1">
          <mxGeometry x="-368.28" y="220" width="138.28" height="30" as="geometry" />
        </mxCell>
        <mxCell id="a46WFlWve7ooyqTm3PGp-32" value="&lt;font style=&quot;font-size: 15px;&quot;&gt;&lt;b&gt;Terminal 1 Gates&lt;br&gt;&lt;/b&gt;&lt;/font&gt;" style="text;strokeColor=none;align=center;fillColor=none;html=1;verticalAlign=middle;whiteSpace=wrap;rounded=0;" parent="1" vertex="1">
          <mxGeometry x="-820" y="180" width="150" height="30" as="geometry" />
        </mxCell>
        <mxCell id="a46WFlWve7ooyqTm3PGp-33" value="&lt;font style=&quot;font-size: 17px;&quot;&gt;&lt;b&gt;Today&#39;s Schedule&lt;br&gt;&lt;/b&gt;&lt;/font&gt;" style="text;strokeColor=none;align=center;fillColor=none;html=1;verticalAlign=middle;whiteSpace=wrap;rounded=0;" parent="1" vertex="1">
          <mxGeometry x="185" y="185" width="259" height="30" as="geometry" />
        </mxCell>
        <mxCell id="a46WFlWve7ooyqTm3PGp-35" value="&lt;div&gt;AA124&lt;/div&gt;&lt;div&gt;LAX -&amp;gt; PHX&lt;br&gt;&lt;/div&gt;" style="rounded=0;whiteSpace=wrap;html=1;strokeWidth=0;" parent="1" vertex="1">
          <mxGeometry x="185" y="227.5" width="120" height="30" as="geometry" />
        </mxCell>
        <mxCell id="a46WFlWve7ooyqTm3PGp-36" value="1100 - 1230" style="rounded=0;whiteSpace=wrap;html=1;strokeWidth=0;" parent="1" vertex="1">
          <mxGeometry x="344" y="227.5" width="120" height="30" as="geometry" />
        </mxCell>
        <mxCell id="a46WFlWve7ooyqTm3PGp-37" value="AA126&lt;br&gt;LAX -&amp;gt; PHX" style="rounded=0;whiteSpace=wrap;html=1;strokeWidth=0;" parent="1" vertex="1">
          <mxGeometry x="185" y="345" width="120" height="30" as="geometry" />
        </mxCell>
        <mxCell id="a46WFlWve7ooyqTm3PGp-38" value="&lt;div&gt;AA125&lt;/div&gt;&lt;div&gt;PHX -&amp;gt; LAX&lt;br&gt;&lt;/div&gt;" style="rounded=0;whiteSpace=wrap;html=1;strokeWidth=0;" parent="1" vertex="1">
          <mxGeometry x="185" y="285" width="120" height="30" as="geometry" />
        </mxCell>
        <mxCell id="a46WFlWve7ooyqTm3PGp-39" value="1300 - 1430" style="rounded=0;whiteSpace=wrap;html=1;strokeWidth=0;" parent="1" vertex="1">
          <mxGeometry x="344" y="285" width="120" height="30" as="geometry" />
        </mxCell>
        <mxCell id="a46WFlWve7ooyqTm3PGp-41" value="1500 - 1630" style="rounded=0;whiteSpace=wrap;html=1;strokeWidth=0;" parent="1" vertex="1">
          <mxGeometry x="344" y="345" width="120" height="30" as="geometry" />
        </mxCell>
        <mxCell id="a46WFlWve7ooyqTm3PGp-42" value="&lt;font style=&quot;font-size: 16px;&quot;&gt;&lt;b&gt;Maintenance Schedule&lt;br&gt;&lt;/b&gt;&lt;/font&gt;" style="text;strokeColor=none;align=center;fillColor=none;html=1;verticalAlign=middle;whiteSpace=wrap;rounded=0;" parent="1" vertex="1">
          <mxGeometry x="185" y="395" width="259" height="30" as="geometry" />
        </mxCell>
        <mxCell id="a46WFlWve7ooyqTm3PGp-43" value="" style="ellipse;whiteSpace=wrap;html=1;aspect=fixed;fillColor=#32A345;strokeWidth=0;" parent="1" vertex="1">
          <mxGeometry x="-373.22" y="472.5" width="20" height="20" as="geometry" />
        </mxCell>
        <mxCell id="a46WFlWve7ooyqTm3PGp-44" value="" style="ellipse;whiteSpace=wrap;html=1;aspect=fixed;fillColor=#32A345;" parent="1" vertex="1">
          <mxGeometry x="-373.22" y="502.5" width="20" height="20" as="geometry" />
        </mxCell>
        <mxCell id="a46WFlWve7ooyqTm3PGp-45" value="" style="ellipse;whiteSpace=wrap;html=1;aspect=fixed;fillColor=#FFFF00;" parent="1" vertex="1">
          <mxGeometry x="-373.22" y="532.5" width="20" height="20" as="geometry" />
        </mxCell>
        <mxCell id="a46WFlWve7ooyqTm3PGp-46" value="Power Supply" style="text;html=1;align=center;verticalAlign=middle;whiteSpace=wrap;rounded=0;" parent="1" vertex="1">
          <mxGeometry x="-353.22" y="467.5" width="95" height="30" as="geometry" />
        </mxCell>
        <mxCell id="a46WFlWve7ooyqTm3PGp-47" value="Jet Bridge" style="text;html=1;align=center;verticalAlign=middle;whiteSpace=wrap;rounded=0;" parent="1" vertex="1">
          <mxGeometry x="-353.22" y="497.5" width="72.5" height="30" as="geometry" />
        </mxCell>
        <mxCell id="a46WFlWve7ooyqTm3PGp-48" value="Maintenance Scheduled" style="text;html=1;align=center;verticalAlign=middle;whiteSpace=wrap;rounded=0;" parent="1" vertex="1">
          <mxGeometry x="-353.22" y="527.5" width="147.5" height="30" as="geometry" />
        </mxCell>
        <mxCell id="a46WFlWve7ooyqTm3PGp-50" value="Routine" style="rounded=0;whiteSpace=wrap;html=1;strokeWidth=0;" parent="1" vertex="1">
          <mxGeometry x="173" y="435" width="120" height="30" as="geometry" />
        </mxCell>
        <mxCell id="a46WFlWve7ooyqTm3PGp-51" value="Today" style="rounded=0;whiteSpace=wrap;html=1;strokeWidth=0;" parent="1" vertex="1">
          <mxGeometry x="332" y="435" width="120" height="30" as="geometry" />
        </mxCell>
        <mxCell id="a46WFlWve7ooyqTm3PGp-52" value="Duration" style="rounded=0;whiteSpace=wrap;html=1;strokeWidth=0;" parent="1" vertex="1">
          <mxGeometry x="173" y="510" width="120" height="30" as="geometry" />
        </mxCell>
        <mxCell id="a46WFlWve7ooyqTm3PGp-53" value="Inspection" style="rounded=0;whiteSpace=wrap;html=1;strokeWidth=0;" parent="1" vertex="1">
          <mxGeometry x="173" y="470" width="120" height="30" as="geometry" />
        </mxCell>
        <mxCell id="a46WFlWve7ooyqTm3PGp-54" value="1400" style="rounded=0;whiteSpace=wrap;html=1;strokeWidth=0;" parent="1" vertex="1">
          <mxGeometry x="332" y="470" width="120" height="30" as="geometry" />
        </mxCell>
        <mxCell id="a46WFlWve7ooyqTm3PGp-55" value="1 hour" style="rounded=0;whiteSpace=wrap;html=1;strokeWidth=0;" parent="1" vertex="1">
          <mxGeometry x="332" y="510" width="120" height="30" as="geometry" />
        </mxCell>
        <mxCell id="EBDegJPGXdKUqQYg_392-9" value="1030" style="rounded=0;whiteSpace=wrap;html=1;strokeWidth=0;" vertex="1" parent="1">
          <mxGeometry x="-233.71999999999997" y="280" width="120" height="30" as="geometry" />
        </mxCell>
        <mxCell id="EBDegJPGXdKUqQYg_392-10" value="&lt;div&gt;&lt;b&gt;Gate A2&lt;/b&gt;&lt;/div&gt;&lt;div&gt;&lt;b&gt;AA124&lt;br&gt;&lt;/b&gt;&lt;/div&gt;" style="rounded=0;whiteSpace=wrap;html=1;strokeWidth=0;" vertex="1" parent="1">
          <mxGeometry x="-813.75" y="300" width="120" height="30" as="geometry" />
        </mxCell>
        <mxCell id="EBDegJPGXdKUqQYg_392-11" value="&lt;span style=&quot;color: rgb(255, 128, 0);&quot;&gt;Occupied&lt;/span&gt;" style="rounded=0;whiteSpace=wrap;html=1;strokeWidth=0;" vertex="1" parent="1">
          <mxGeometry x="-675" y="300" width="120" height="30" as="geometry" />
        </mxCell>
        <mxCell id="EBDegJPGXdKUqQYg_392-12" value="Available" style="rounded=0;whiteSpace=wrap;html=1;strokeWidth=0;" vertex="1" parent="1">
          <mxGeometry x="-388.22" y="280" width="120" height="30" as="geometry" />
        </mxCell>
        <mxCell id="EBDegJPGXdKUqQYg_392-13" value="&lt;div&gt;&lt;b&gt;Gate A3&lt;/b&gt;&lt;/div&gt;&lt;div&gt;&lt;b&gt;AA125&lt;br&gt;&lt;/b&gt;&lt;/div&gt;" style="rounded=0;whiteSpace=wrap;html=1;strokeWidth=0;" vertex="1" parent="1">
          <mxGeometry x="-813.75" y="350" width="120" height="30" as="geometry" />
        </mxCell>
        <mxCell id="EBDegJPGXdKUqQYg_392-14" value="&lt;span style=&quot;color: rgb(50, 163, 69);&quot;&gt;Available&lt;/span&gt;" style="rounded=0;whiteSpace=wrap;html=1;strokeWidth=0;" vertex="1" parent="1">
          <mxGeometry x="-675" y="350" width="120" height="30" as="geometry" />
        </mxCell>
        <mxCell id="EBDegJPGXdKUqQYg_392-16" value="B737" style="rounded=0;whiteSpace=wrap;html=1;strokeWidth=0;" vertex="1" parent="1">
          <mxGeometry x="-390" y="355" width="120" height="30" as="geometry" />
        </mxCell>
        <mxCell id="EBDegJPGXdKUqQYg_392-18" value="&lt;div&gt;&lt;b&gt;Gate A4&lt;/b&gt;&lt;/div&gt;&lt;div&gt;&lt;b&gt;AA1236&lt;/b&gt;&lt;/div&gt;" style="rounded=0;whiteSpace=wrap;html=1;strokeWidth=0;" vertex="1" parent="1">
          <mxGeometry x="-813.75" y="400" width="120" height="30" as="geometry" />
        </mxCell>
        <mxCell id="EBDegJPGXdKUqQYg_392-19" value="&lt;span style=&quot;color: rgb(255, 128, 0);&quot;&gt;Occupied&lt;/span&gt;" style="rounded=0;whiteSpace=wrap;html=1;strokeWidth=0;" vertex="1" parent="1">
          <mxGeometry x="-676.25" y="400" width="120" height="30" as="geometry" />
        </mxCell>
        <mxCell id="EBDegJPGXdKUqQYg_392-21" value="&lt;div&gt;&lt;b&gt;Gate A5&lt;/b&gt;&lt;/div&gt;&lt;div&gt;&lt;b&gt;AA127&lt;br&gt;&lt;/b&gt;&lt;/div&gt;" style="rounded=0;whiteSpace=wrap;html=1;strokeWidth=0;" vertex="1" parent="1">
          <mxGeometry x="-812.5" y="450" width="120" height="30" as="geometry" />
        </mxCell>
        <mxCell id="EBDegJPGXdKUqQYg_392-22" value="&lt;span style=&quot;color: rgb(255, 0, 0);&quot;&gt;Unavailable&lt;/span&gt;" style="rounded=0;whiteSpace=wrap;html=1;strokeWidth=0;" vertex="1" parent="1">
          <mxGeometry x="-673.75" y="450" width="120" height="30" as="geometry" />
        </mxCell>
        <mxCell id="EBDegJPGXdKUqQYg_392-23" value="Terminal 1" style="rounded=0;whiteSpace=wrap;html=1;strokeWidth=0;" vertex="1" parent="1">
          <mxGeometry x="-233.71999999999997" y="355" width="120" height="30" as="geometry" />
        </mxCell>
        <mxCell id="EBDegJPGXdKUqQYg_392-27" value="" style="rounded=0;whiteSpace=wrap;html=1;fillColor=#dae8fc;strokeColor=#6c8ebf;" vertex="1" parent="1">
          <mxGeometry x="-850" y="-28.5" width="1370" height="208.5" as="geometry" />
        </mxCell>
        <mxCell id="kbPqY_EedMQAxYhCuao2-2" value="&lt;font style=&quot;font-size: 18px;&quot;&gt;&lt;b&gt;Gate Management&lt;br&gt;&lt;/b&gt;&lt;/font&gt;" style="text;strokeColor=none;align=center;fillColor=none;html=1;verticalAlign=middle;whiteSpace=wrap;rounded=0;" parent="1" vertex="1">
          <mxGeometry x="-830" y="-13.5" width="200" height="30" as="geometry" />
        </mxCell>
        <mxCell id="a46WFlWve7ooyqTm3PGp-6" value="&lt;b&gt;&lt;font style=&quot;font-size: 17px;&quot;&gt;Total Gates&lt;/font&gt;&lt;/b&gt;" style="text;strokeColor=none;align=center;fillColor=none;html=1;verticalAlign=middle;whiteSpace=wrap;rounded=0;" parent="1" vertex="1">
          <mxGeometry x="-600" y="71.75" width="130" height="30" as="geometry" />
        </mxCell>
        <mxCell id="a46WFlWve7ooyqTm3PGp-8" value="&lt;b&gt;&lt;font style=&quot;font-size: 17px;&quot;&gt;Maintenance&lt;/font&gt;&lt;/b&gt;" style="text;strokeColor=none;align=center;fillColor=none;html=1;verticalAlign=middle;whiteSpace=wrap;rounded=0;" parent="1" vertex="1">
          <mxGeometry x="-212" y="71.75" width="140" height="30" as="geometry" />
        </mxCell>
        <mxCell id="a46WFlWve7ooyqTm3PGp-10" value="&lt;b&gt;&lt;font style=&quot;font-size: 17px;&quot;&gt;Available&lt;/font&gt;&lt;/b&gt;" style="text;strokeColor=none;align=center;fillColor=none;html=1;verticalAlign=middle;whiteSpace=wrap;rounded=0;" parent="1" vertex="1">
          <mxGeometry x="-400" y="71.75" width="110" height="30" as="geometry" />
        </mxCell>
        <mxCell id="a46WFlWve7ooyqTm3PGp-11" value="&lt;b&gt;&lt;font style=&quot;font-size: 17px;&quot;&gt;Issues&lt;/font&gt;&lt;/b&gt;" style="text;strokeColor=none;align=center;fillColor=none;html=1;verticalAlign=middle;whiteSpace=wrap;rounded=0;" parent="1" vertex="1">
          <mxGeometry x="26" y="71.75" width="110" height="30" as="geometry" />
        </mxCell>
        <mxCell id="a46WFlWve7ooyqTm3PGp-14" value="&lt;font style=&quot;font-size: 17px;&quot;&gt;&lt;b&gt;5&lt;/b&gt;&lt;/font&gt;" style="text;strokeColor=none;align=center;fillColor=none;html=1;verticalAlign=middle;whiteSpace=wrap;rounded=0;" parent="1" vertex="1">
          <mxGeometry x="-570" y="110" width="60" height="30" as="geometry" />
        </mxCell>
        <mxCell id="a46WFlWve7ooyqTm3PGp-15" value="&lt;font style=&quot;font-size: 17px; color: rgb(50, 163, 69);&quot;&gt;&lt;b&gt;4&lt;/b&gt;&lt;/font&gt;" style="text;strokeColor=none;align=center;fillColor=none;html=1;verticalAlign=middle;whiteSpace=wrap;rounded=0;" parent="1" vertex="1">
          <mxGeometry x="-375" y="112.5" width="60" height="30" as="geometry" />
        </mxCell>
        <mxCell id="a46WFlWve7ooyqTm3PGp-16" value="&lt;font style=&quot;font-size: 18px; color: rgb(255, 128, 0);&quot;&gt;&lt;b&gt;1&lt;/b&gt;&lt;/font&gt;" style="text;strokeColor=none;align=center;fillColor=none;html=1;verticalAlign=middle;whiteSpace=wrap;rounded=0;" parent="1" vertex="1">
          <mxGeometry x="-180.5" y="110" width="81" height="30" as="geometry" />
        </mxCell>
        <mxCell id="a46WFlWve7ooyqTm3PGp-17" value="&lt;font style=&quot;font-size: 20px; color: rgb(255, 0, 0);&quot;&gt;&lt;b&gt;1&lt;/b&gt;&lt;/font&gt;" style="text;strokeColor=none;align=center;fillColor=none;html=1;verticalAlign=middle;whiteSpace=wrap;rounded=0;" parent="1" vertex="1">
          <mxGeometry x="39" y="110" width="84" height="30" as="geometry" />
        </mxCell>
        <mxCell id="EBDegJPGXdKUqQYg_392-1" value="" style="sketch=0;aspect=fixed;pointerEvents=1;shadow=0;dashed=0;html=1;strokeColor=default;labelPosition=center;verticalLabelPosition=bottom;verticalAlign=top;align=center;fillColor=none;shape=mxgraph.mscae.enterprise.filter;strokeWidth=3;" vertex="1" parent="1">
          <mxGeometry x="-390.5" y="-10" width="22.22" height="20" as="geometry" />
        </mxCell>
        <mxCell id="EBDegJPGXdKUqQYg_392-2" value="All terminals" style="rounded=1;fillColor=#F1F2F4;strokeColor=none;html=1;whiteSpace=wrap;fontColor=#596780;align=left;fontSize=12;spacingLeft=10;sketch=0;" vertex="1" parent="1">
          <mxGeometry x="-352" y="-16.5" width="140" height="33" as="geometry" />
        </mxCell>
        <mxCell id="EBDegJPGXdKUqQYg_392-3" value="" style="shape=triangle;direction=south;fillColor=#596780;strokeColor=none;html=1;sketch=0;" vertex="1" parent="EBDegJPGXdKUqQYg_392-2">
          <mxGeometry x="1" y="0.5" width="12" height="6" relative="1" as="geometry">
            <mxPoint x="190" y="-10" as="offset" />
          </mxGeometry>
        </mxCell>
        <mxCell id="EBDegJPGXdKUqQYg_392-4" value="Search gates" style="strokeWidth=1;shadow=0;dashed=0;align=center;html=1;shape=mxgraph.mockup.forms.searchBox;strokeColor=#999999;mainText=;strokeColor2=#008cff;fontColor=#666666;fontSize=17;align=left;spacingLeft=3;whiteSpace=wrap;" vertex="1" parent="1">
          <mxGeometry x="-184.5" y="-16.5" width="150" height="30" as="geometry" />
        </mxCell>
        <mxCell id="EBDegJPGXdKUqQYg_392-29" value="Status" style="text;html=1;align=center;verticalAlign=middle;whiteSpace=wrap;rounded=0;" vertex="1" parent="1">
          <mxGeometry x="-388.22" y="250" width="95" height="30" as="geometry" />
        </mxCell>
        <mxCell id="EBDegJPGXdKUqQYg_392-30" value="Last Cleaned" style="text;html=1;align=center;verticalAlign=middle;whiteSpace=wrap;rounded=0;" vertex="1" parent="1">
          <mxGeometry x="-234.22" y="250" width="95" height="30" as="geometry" />
        </mxCell>
        <mxCell id="EBDegJPGXdKUqQYg_392-31" value="Terminal" style="text;html=1;align=center;verticalAlign=middle;whiteSpace=wrap;rounded=0;" vertex="1" parent="1">
          <mxGeometry x="-234.22" y="325" width="95" height="30" as="geometry" />
        </mxCell>
        <mxCell id="EBDegJPGXdKUqQYg_392-32" value="Aircraft Type" style="text;html=1;align=center;verticalAlign=middle;whiteSpace=wrap;rounded=0;" vertex="1" parent="1">
          <mxGeometry x="-390" y="325" width="95" height="30" as="geometry" />
        </mxCell>
      </root>
    </mxGraphModel>
  </diagram>
</mxfile>
